# xmcd
#
# Track frame offsets: 
#        150
#        13613
#        30466
#        49504
#        66783
#        85198
#        104990
#        122015
#        143644
#        160958
#        180237
#        194326
#        213159
#        229250
#
# Disc length: 3342 seconds
#
# Revision: 0
# Processed by: cddbd v1.5.2PL0 Copyright (c) Steve Scherf et al.
# Submitted via: ExactAudioCopy v0.99pb5
#
DISCID=b70d0c0e
DTITLE=Ben L'oncle Soul - Ben L'oncle Soul
DYEAR=2010
DGENRE=Soul
TTITLE0=Seven Nation Army
TTITLE1=Soulman
TTITLE2=Petite Soeur
TTITLE3=Mon Amour
TTITLE4=Elle Me Dit
TTITLE5=I Don't Wanna Waste
TTITLE6=Come Home
TTITLE7=L'Ombre d'un Homme
TTITLE8=Ain't Off to the Back
TTITLE9=Lise
TTITLE10=Demain J'Arrete
TTITLE11=Partir
TTITLE12=Lose It
TTITLE13=Back for You
EXTD=
EXTT0=
EXTT1=
EXTT2=
EXTT3=
EXTT4=
EXTT5=
EXTT6=
EXTT7=
EXTT8=
EXTT9=
EXTT10=
EXTT11=
EXTT12=
EXTT13=
PLAYORDER=
